<svg xmlns="http://www.w3.org/2000/svg"  viewBox="0 0 100 100" width="100px" height="100px"><path d="M30.577,73.002h12.425V53.006	c0-0.551,0.448-1,1-1h12.007c0.551,0,1,0.449,1,1v19.996h15.778c-4.068-2.449-6.789-6.909-6.789-12.003v-18.02L49.999,30.535	L34,42.979v18.02c0,7.729-6.272,14.002-14.001,14.002L0,74.998L0.001,71L20,71.001c5.518,0,9.999-4.481,9.999-10.001V43.557	l-3.77,2.932l-1.228-1.58l23.769-18.487c0.721-0.561,1.733-0.561,2.455,0l23.761,18.487l-1.228,1.58l-3.761-2.925v17.436	c0,5.52,4.48,10.001,9.998,10.001L99.995,71l-0.001,4.001l-72.252,0.004C28.758,74.442,29.71,73.768,30.577,73.002z M55.009,73.002	V54.006H45.002v18.996H55.009z"/></svg>